<svg width="36" height="40" viewBox="0 0 36 40" fill="none" xmlns="http://www.w3.org/2000/svg">
<path d="M33.8 39.961L20.65 25.6863C19.65 26.6271 18.484 27.3598 17.1521 27.8845C15.8201 28.4092 14.4027 28.6715 12.9 28.6715C9.2946 28.6715 6.24325 27.3146 3.74595 24.6007C1.24865 21.8869 0 18.6122 0 14.7767C0 10.9411 1.25 7.66642 3.75 4.95259C6.25 2.23875 9.275 0.881836 12.825 0.881836C16.375 0.881836 19.3917 2.23875 21.875 4.95259C24.3583 7.66642 25.6 10.9438 25.6 14.7848C25.6 16.3353 25.3667 17.8342 24.9 19.2816C24.4333 20.729 23.7333 22.0859 22.8 23.3524L36 37.5729L33.8 39.961ZM12.85 25.4149C15.5583 25.4149 17.8604 24.3746 19.7563 22.294C21.6521 20.2134 22.6 17.7076 22.6 14.7767C22.6 11.8457 21.6521 9.33995 19.7563 7.25934C17.8604 5.17874 15.5583 4.13844 12.85 4.13844C10.1139 4.13844 7.7882 5.17874 5.8729 7.25934C3.95763 9.33995 3 11.8457 3 14.7767C3 17.7076 3.95763 20.2134 5.8729 22.294C7.7882 24.3746 10.1139 25.4149 12.85 25.4149Z" fill="#EDEDED"/>
</svg>
