<svg width="189" height="21" viewBox="0 0 189 21" fill="none" xmlns="http://www.w3.org/2000/svg">
<path d="M0 21V0H18V3H21V12H18V15H6V21H0ZM6 12H15V3H6V12ZM27 21V18H24V9H27V6H42V9H45V18H42V21H27ZM30 18H39V9H30V18ZM48 21V0H54V12H60V9H63V6H69V9H66V12H63V15H66V18H69V21H63V18H60V15H54V21H48ZM75 21V18H72V9H75V6H90V9H93V15H78V18H90V21H75ZM78 12H87V9H78V12ZM99 21V18H96V0H102V12H105V0H108V12H111V0H117V18H114V21H111V18H108V15H105V18H102V21H99ZM129 3V0H135V3H129ZM123 21V18H129V9H126V6H135V18H141V21H123ZM144 21V0H150V12H156V9H159V6H165V9H162V12H159V15H162V18H165V21H159V18H156V15H150V21H144ZM177 3V0H183V3H177ZM171 21V18H177V9H174V6H183V18H189V21H171Z" fill="#EDEDED"/>
</svg>
